<?xml version="1.0" standalone="no"?>
<!DOCTYPE svg PUBLIC "-//W3C//DTD SVG 20010904//EN"
 "http://www.w3.org/TR/2001/REC-SVG-20010904/DTD/svg10.dtd">
<svg version="1.0" xmlns="http://www.w3.org/2000/svg"
 width="311.000000pt" height="311.000000pt" viewBox="0 0 311.000000 311.000000"
 preserveAspectRatio="xMidYMid meet">
<metadata>
Created by potrace 1.14, written by Peter Selinger 2001-2017
</metadata>
<g transform="translate(0.000000,311.000000) scale(0.100000,-0.100000)"
fill="#000000" stroke="none">
<path d="M1530 3101 c-50 -15 -89 -41 -124 -82 -57 -67 -66 -108 -65 -319 0
-102 0 -196 0 -210 -1 -21 -6 -26 -28 -28 -144 -10 -376 -71 -533 -139 -215
-94 -265 -139 -228 -204 15 -26 15 -27 -10 -38 -96 -44 -249 -181 -322 -290
-120 -179 -181 -407 -174 -655 2 -61 5 -122 7 -136 47 -291 218 -547 482 -721
209 -138 455 -224 761 -265 70 -10 417 -12 484 -3 36 4 81 10 100 12 80 11
281 61 365 92 100 36 228 95 233 107 2 4 8 8 14 8 26 0 187 120 266 198 211
209 316 470 307 766 -5 173 -30 297 -86 432 -69 166 -202 324 -351 418 -78 49
-87 59 -68 71 20 12 11 65 -15 91 -34 34 -246 134 -365 173 -143 46 -315 83
-397 84 -10 0 -13 30 -13 114 0 62 3 114 8 114 4 1 30 2 57 3 70 3 91 12 105
46 15 36 7 59 -45 134 -23 34 -61 89 -85 124 -77 112 -77 112 -172 111 -46 0
-94 -4 -108 -8z m158 -191 l32 -50 -27 -2 c-63 -3 -99 -21 -118 -57 -13 -25
-15 -74 -15 -281 0 -244 -1 -250 -23 -274 -18 -20 -35 -26 -92 -31 -38 -3 -81
-8 -95 -10 -14 -3 -38 -7 -55 -10 -42 -7 -189 -49 -258 -73 -57 -20 -57 -20
-138 -1 -107 25 -120 33 -88 50 109 60 379 131 554 144 38 3 76 7 85 10 36 11
41 44 43 305 2 228 4 259 20 283 22 34 48 46 102 46 37 1 42 -3 73 -49z m-888
-922 c23 -9 22 -10 -33 -41 -210 -117 -352 -322 -403 -582 -13 -67 -16 -286
-5 -351 71 -418 428 -722 976 -830 11 -2 40 -6 65 -10 109 -13 124 -22 30 -18
-287 15 -571 97 -778 226 -71 44 -164 119 -221 177 -103 107 -193 273 -215
397 -3 16 -9 49 -14 74 -13 71 -4 333 13 360 2 4 7 22 10 40 11 62 66 189 114
262 77 118 189 215 325 284 69 34 75 35 136 12z m763 -1835 c-7 -2 -19 -2 -25
0 -7 3 -2 5 12 5 14 0 19 -2 13 -5z"/>
</g>
</svg>
